<?xml version="1.0" standalone="no"?>
<!DOCTYPE svg PUBLIC "-//W3C//DTD SVG 20010904//EN"
 "http://www.w3.org/TR/2001/REC-SVG-20010904/DTD/svg10.dtd">
<svg version="1.0" xmlns="http://www.w3.org/2000/svg"
 width="260.000000pt" height="260.000000pt" viewBox="0 0 260.000000 260.000000"
 preserveAspectRatio="xMidYMid meet">
<metadata>
Created by potrace 1.11, written by Peter Selinger 2001-2013
</metadata>
<g transform="translate(0.000000,260.000000) scale(0.100000,-0.100000)"
fill="#000000" stroke="none">
<path d="M1218 2538 c6 -6 18 -8 28 -6 14 3 12 5 -9 10 -19 3 -25 2 -19 -4z"/>
<path d="M1281 2531 c-13 -18 -36 -20 -76 -6 -16 6 -17 5 -5 -4 12 -9 11 -11
-7 -11 -13 0 -23 5 -23 12 0 6 -7 3 -15 -8 -11 -14 -14 -15 -9 -3 3 10 0 20
-7 25 -7 4 -10 3 -6 -4 4 -5 4 -18 0 -27 -5 -16 -8 -15 -23 5 -13 17 -19 20
-25 10 -5 -8 -4 -11 2 -7 6 4 14 0 17 -9 10 -25 8 -25 -26 -9 -24 12 -28 12
-15 2 21 -17 22 -27 2 -27 -8 0 -15 5 -15 12 0 6 -6 4 -13 -6 -7 -9 -29 -21
-50 -26 -34 -7 -36 -6 -25 8 12 14 11 14 -9 2 -12 -8 -19 -19 -16 -25 4 -5 3
-7 -1 -3 -4 3 -28 -2 -52 -13 -25 -10 -42 -14 -39 -9 3 6 1 10 -4 10 -6 0 -11
-7 -11 -15 0 -9 -6 -12 -17 -8 -10 4 -14 2 -10 -4 7 -11 -22 -28 -31 -18 -3 3
1 5 8 5 7 0 11 3 7 6 -3 4 -18 -3 -32 -14 -14 -11 -35 -19 -45 -17 -11 2 -20
-1 -20 -6 0 -6 -4 -7 -10 -4 -5 3 -18 1 -28 -4 -13 -7 -23 -6 -32 2 -10 10
-12 8 -7 -5 4 -11 1 -18 -6 -18 -7 0 -23 -9 -35 -20 -25 -24 -33 -25 -26 -5 4
8 1 15 -5 15 -6 0 -10 -3 -10 -7 4 -25 -5 -44 -33 -75 -18 -20 -34 -42 -36
-49 -6 -23 -33 -48 -47 -43 -7 3 -16 1 -20 -5 -3 -7 0 -8 9 -5 9 3 16 1 16 -5
0 -6 -5 -11 -11 -11 -5 0 -7 -6 -3 -12 6 -10 4 -10 -8 0 -14 12 -16 10 -11
-10 5 -23 5 -23 -10 -3 -16 20 -16 20 -10 -2 5 -21 -18 -58 -30 -47 -3 3 -8
-4 -12 -15 -3 -12 -11 -21 -16 -21 -6 0 -22 -14 -36 -30 -19 -23 -31 -29 -47
-24 -20 6 -20 5 -2 -8 18 -14 17 -16 -11 -36 -17 -12 -34 -18 -38 -14 -5 4 -5
1 -1 -6 6 -10 11 -10 22 -1 13 11 13 9 3 -14 -7 -15 -17 -23 -23 -20 -6 4 -4
-2 4 -12 14 -17 13 -18 -4 -12 -15 6 -17 5 -7 -7 8 -9 8 -21 2 -39 -5 -14 -7
-28 -3 -33 4 -4 2 -4 -5 0 -8 4 -11 -7 -9 -38 1 -28 -2 -43 -8 -39 -5 4 -7 -1
-3 -10 3 -9 1 -19 -5 -23 -7 -5 -8 -2 -3 7 5 8 -1 5 -13 -5 -24 -20 -31 -36
-9 -17 8 6 17 8 20 4 11 -10 8 -33 -4 -33 -5 0 -7 5 -3 12 4 7 3 8 -5 4 -9 -6
-9 -11 -1 -21 8 -9 8 -15 0 -20 -5 -3 -10 -11 -10 -16 0 -6 5 -7 11 -3 8 4 8
1 1 -12 -5 -11 -8 -27 -7 -36 2 -10 -2 -18 -8 -18 -8 0 -7 -3 1 -9 17 -10 15
-21 -4 -43 -10 -11 -12 -18 -5 -23 18 -11 12 -24 -9 -20 -11 2 -20 -1 -20 -7
0 -5 7 -8 15 -5 8 4 17 2 20 -3 4 -6 0 -10 -7 -10 -8 0 -9 -3 -3 -8 16 -11 17
-33 3 -50 -10 -13 -10 -14 0 -8 9 5 12 -1 10 -26 -1 -18 -4 -37 -7 -43 -10
-18 -10 -35 0 -29 5 3 6 11 3 17 -4 7 -4 9 1 5 4 -4 9 -27 10 -52 1 -36 -1
-43 -14 -40 -9 3 -6 -1 7 -7 13 -7 21 -18 17 -26 -3 -8 0 -24 6 -35 9 -17 9
-20 -3 -15 -8 3 -15 -1 -15 -8 0 -7 7 -12 16 -11 9 1 16 -8 17 -21 1 -12 -2
-21 -5 -18 -4 2 -7 -6 -8 -18 0 -12 1 -16 4 -9 5 13 24 17 21 5 -1 -5 4 -21
11 -37 6 -16 9 -31 6 -34 -2 -3 1 -12 8 -20 10 -13 8 -14 -13 -9 -20 6 -19 4
5 -8 17 -8 26 -14 20 -15 -6 0 -5 -3 1 -8 16 -10 64 -108 57 -116 -4 -3 -2 -6
4 -6 6 0 14 -7 17 -16 5 -12 3 -14 -7 -8 -7 5 -4 1 6 -9 16 -14 17 -20 6 -35
-11 -14 -11 -15 1 -4 20 17 35 15 20 -3 -7 -9 -10 -18 -6 -22 3 -3 6 0 6 7 0
9 6 8 20 -5 11 -10 17 -21 15 -25 -3 -4 2 -11 11 -14 11 -4 14 -14 11 -27 -4
-16 -3 -18 9 -8 8 6 14 7 14 2 0 -6 9 -20 20 -33 12 -13 18 -33 16 -49 -2 -18
2 -28 10 -28 9 0 10 5 3 19 -12 22 -3 24 17 4 8 -8 12 -20 11 -28 -2 -7 -2
-10 0 -6 7 12 45 -12 40 -25 -2 -7 0 -21 5 -32 8 -18 8 -18 4 3 -3 15 0 22 7
19 7 -2 11 -11 11 -20 -1 -9 2 -15 6 -12 4 2 19 -8 33 -23 39 -41 54 -52 63
-44 4 4 4 1 0 -5 -4 -7 -2 -13 4 -13 6 0 8 -5 4 -13 -5 -7 -1 -7 10 2 12 10
20 11 24 4 4 -6 26 -20 50 -32 23 -12 41 -25 38 -29 -3 -5 0 -14 6 -22 8 -13
9 -12 5 2 -9 26 6 31 20 6 7 -13 12 -17 13 -10 0 9 5 10 17 4 10 -5 23 -7 30
-5 7 3 10 -4 7 -19 -5 -20 -4 -21 6 -6 13 21 63 21 55 0 -3 -8 0 -10 7 -6 7 4
31 8 54 8 34 1 41 -2 39 -16 -2 -10 1 -21 7 -24 7 -5 8 -2 3 6 -6 10 -4 12 10
6 15 -5 16 -4 6 8 -11 13 -7 13 26 3 21 -6 41 -15 44 -20 3 -4 10 -7 15 -6 5
2 32 -1 59 -6 28 -5 54 -7 59 -6 5 1 6 -5 2 -14 -4 -11 -2 -14 7 -8 6 4 26 8
42 10 17 1 45 4 62 6 22 3 31 1 26 -7 -3 -6 0 -6 8 1 16 16 33 17 23 1 -5 -7
-3 -8 5 -3 22 13 80 15 77 2 -1 -7 -1 -9 1 -4 3 4 8 5 12 3 4 -3 13 0 21 6 12
8 12 9 -2 4 -10 -3 -18 -1 -18 4 0 6 9 10 19 10 11 0 23 5 26 10 5 8 11 7 21
-1 12 -10 13 -9 8 5 -5 12 -2 15 12 9 13 -5 15 -3 9 7 -5 9 -4 11 3 6 7 -4 12
-2 12 3 0 6 8 11 18 11 15 0 15 -2 2 -11 -12 -9 -12 -10 3 -5 10 3 21 6 23 6
3 0 2 6 -2 13 -4 6 -4 9 1 5 4 -4 14 -3 21 3 20 16 64 21 64 7 0 -10 3 -9 9 1
5 8 24 15 43 15 18 1 39 5 46 10 7 4 32 10 55 13 23 2 46 9 52 14 15 15 25 10
18 -8 -4 -11 -3 -14 5 -9 7 4 12 14 12 23 0 9 6 13 15 9 8 -3 14 0 12 6 -1 6
11 18 27 27 45 24 66 44 59 54 -3 6 -1 7 4 4 11 -7 107 76 109 94 1 5 3 12 4
17 1 4 2 11 1 16 -1 5 6 6 15 2 13 -5 14 -3 6 7 -13 15 -5 29 28 45 24 12 24
12 1 6 -18 -5 -22 -3 -15 7 4 7 9 24 11 38 1 15 3 32 4 39 1 7 9 10 17 7 11
-4 12 -2 4 8 -12 15 14 80 29 71 5 -3 9 0 9 5 0 6 -5 11 -12 11 -8 0 -6 6 4
17 11 11 21 13 30 7 8 -5 6 -1 -4 8 -10 9 -14 19 -9 22 5 4 12 2 16 -4 8 -13
25 -3 25 13 0 8 -3 8 -9 -2 -6 -10 -10 -10 -16 -2 -8 13 51 75 64 67 4 -3 8 1
8 9 0 12 -3 12 -15 2 -12 -10 -12 -6 2 21 17 32 30 44 20 18 -3 -8 -1 -16 4
-20 10 -6 9 30 0 40 -11 10 14 54 26 47 8 -4 7 -2 0 6 -17 19 4 84 25 76 11
-3 9 0 -3 10 -16 12 -17 18 -8 27 13 13 16 32 4 24 -4 -2 -8 4 -9 14 -1 10 6
20 15 22 9 2 17 14 17 30 1 15 -2 25 -6 22 -4 -2 -6 -14 -4 -25 2 -12 -1 -19
-7 -17 -18 6 -18 41 0 55 16 12 16 13 0 7 -10 -3 -18 -1 -18 5 0 6 5 11 10 11
6 0 10 5 10 11 0 5 -4 7 -10 4 -6 -3 -10 1 -10 10 0 9 4 14 8 11 5 -3 9 1 9 9
0 8 -4 12 -9 9 -13 -8 -9 41 5 55 8 10 8 12 0 7 -6 -3 -14 -2 -18 4 -3 5 1 10
9 10 9 0 16 5 16 11 0 5 -4 7 -10 4 -10 -6 -12 4 -12 50 0 51 2 66 10 61 5 -3
9 1 9 9 0 8 -5 11 -10 8 -5 -3 -7 0 -5 8 3 8 11 13 17 11 7 -1 9 2 6 8 -4 6
-10 9 -13 6 -7 -8 -32 65 -26 76 3 4 0 8 -7 8 -9 0 -9 3 0 14 9 11 9 16 -1 23
-25 15 -38 49 -25 63 9 10 9 11 0 6 -6 -3 -14 -2 -18 4 -3 5 -1 10 4 10 6 0
11 4 11 10 0 5 -7 7 -15 4 -8 -4 -15 -2 -15 4 0 6 6 13 13 15 7 3 5 6 -5 6
-10 1 -18 7 -18 15 0 7 -7 19 -15 26 -8 7 -15 18 -15 24 0 6 5 4 10 -4 7 -12
9 -10 8 7 -2 14 -7 19 -18 16 -12 -4 -11 -1 3 10 9 8 17 18 17 23 0 4 -5 3
-12 -4 -19 -19 -33 -14 -15 6 14 15 15 19 2 19 -8 0 -12 -4 -9 -9 3 -4 0 -8
-6 -8 -6 0 -8 12 -5 31 4 19 2 28 -5 24 -5 -3 -10 1 -10 9 0 9 -5 16 -11 16
-6 0 -8 9 -4 20 4 12 2 20 -5 20 -6 0 -8 5 -5 10 3 6 1 10 -6 10 -6 0 -9 8 -6
20 3 12 1 17 -5 14 -5 -3 -12 3 -15 15 -3 12 -10 21 -16 21 -6 0 -2 7 9 15 15
12 15 14 2 9 -26 -9 -42 5 -27 22 7 9 8 14 3 12 -16 -5 -74 55 -74 77 0 17 -2
17 -10 5 -8 -13 -10 -12 -10 3 0 10 -4 16 -8 13 -5 -3 -14 4 -22 14 -8 10 -18
16 -24 13 -6 -4 -5 0 2 9 11 14 10 16 -6 11 -13 -3 -25 3 -34 16 -8 12 -18 18
-21 14 -4 -3 -7 -1 -7 5 0 7 -9 12 -21 12 -11 0 -18 4 -14 9 3 6 -4 10 -15 10
-11 1 -29 1 -40 2 -12 0 -18 5 -14 11 5 7 2 8 -7 2 -19 -12 -69 -13 -69 -1 0
5 -7 4 -15 -3 -14 -12 -15 -10 -11 14 3 15 1 24 -5 21 -5 -4 -7 -11 -4 -16 9
-14 -17 -20 -50 -11 -22 7 -29 14 -27 28 3 18 3 18 -13 -1 -14 -17 -16 -18
-11 -2 3 10 2 16 -3 12 -5 -3 -11 -2 -14 2 -2 5 -2 2 -1 -4 4 -16 -1 -16 -27
-2 -16 8 -18 13 -8 25 16 19 4 18 -16 -2 -12 -13 -19 -14 -30 -4 -8 7 -15 9
-15 6 0 -4 -9 -2 -20 4 -12 6 -17 17 -14 28 5 13 4 14 -4 4 -15 -21 -57 -11
-55 13 1 18 0 18 -10 4 -7 -9 -21 -14 -32 -12 -11 3 -28 4 -37 4 -10 0 -18 7
-18 15 0 9 5 12 13 8 6 -4 8 -3 4 1 -12 14 -36 14 -31 0 4 -9 -4 -11 -28 -8
-18 3 -41 5 -51 5 -15 -1 -16 2 -6 14 6 8 10 16 7 19 -2 2 -10 -4 -17 -14z
m-1161 -1111 c0 -5 -5 -10 -11 -10 -5 0 -7 5 -4 10 3 6 8 10 11 10 2 0 4 -4 4
-10z"/>
<path d="M1310 2536 c0 -3 9 -10 20 -16 11 -6 20 -8 20 -6 0 3 -9 10 -20 16
-11 6 -20 8 -20 6z"/>
<path d="M1438 2503 c7 -3 16 -2 19 1 4 3 -2 6 -13 5 -11 0 -14 -3 -6 -6z"/>
<path d="M991 2482 c-7 -13 -6 -19 2 -19 7 0 13 9 13 19 0 10 -1 18 -3 18 -1
0 -7 -8 -12 -18z"/>
<path d="M1590 2461 c0 -6 4 -12 8 -15 5 -3 9 1 9 9 0 8 -4 15 -9 15 -4 0 -8
-4 -8 -9z"/>
<path d="M876 2447 c3 -10 9 -15 12 -12 3 3 0 11 -7 18 -10 9 -11 8 -5 -6z"/>
<path d="M850 2440 c0 -5 5 -10 11 -10 5 0 7 5 4 10 -3 6 -8 10 -11 10 -2 0
-4 -4 -4 -10z"/>
<path d="M1733 2415 c0 -8 4 -12 9 -9 4 3 8 9 8 15 0 5 -4 9 -8 9 -5 0 -9 -7
-9 -15z"/>
<path d="M1765 2400 c-3 -5 -1 -10 4 -10 6 0 11 5 11 10 0 6 -2 10 -4 10 -3 0
-8 -4 -11 -10z"/>
<path d="M1876 2393 c-6 -14 -5 -15 5 -6 7 7 10 15 7 18 -3 3 -9 -2 -12 -12z"/>
<path d="M715 2381 c-3 -5 -2 -12 3 -15 5 -3 9 1 9 9 0 17 -3 19 -12 6z"/>
<path d="M630 2356 c7 -7 13 -7 20 0 6 6 3 10 -10 10 -13 0 -16 -4 -10 -10z"/>
<path d="M2030 2360 c0 -5 5 -10 11 -10 5 0 7 5 4 10 -3 6 -8 10 -11 10 -2 0
-4 -4 -4 -10z"/>
<path d="M570 2319 c0 -5 5 -7 10 -4 6 3 10 8 10 11 0 2 -4 4 -10 4 -5 0 -10
-5 -10 -11z"/>
<path d="M2046 2318 c3 -4 9 -8 15 -8 5 0 9 4 9 8 0 5 -7 9 -15 9 -8 0 -12 -4
-9 -9z"/>
<path d="M2106 2279 c2 -4 13 -7 24 -6 23 2 17 10 -10 12 -10 1 -17 -2 -14 -6z"/>
<path d="M493 2258 c1 -7 -4 -12 -11 -10 -8 1 -11 -2 -7 -8 5 -8 11 -8 21 1 7
6 11 15 8 20 -8 13 -14 11 -11 -3z"/>
<path d="M456 2222 c-3 -5 1 -9 9 -9 8 0 12 4 9 9 -3 4 -7 8 -9 8 -2 0 -6 -4
-9 -8z"/>
<path d="M2166 2208 c3 -5 10 -6 15 -3 13 9 11 12 -6 12 -8 0 -12 -4 -9 -9z"/>
<path d="M433 2168 c-2 -18 0 -20 7 -8 12 18 13 30 2 30 -4 0 -9 -10 -9 -22z"/>
<path d="M330 2060 c0 -5 5 -10 11 -10 5 0 7 5 4 10 -3 6 -8 10 -11 10 -2 0
-4 -4 -4 -10z"/>
<path d="M290 2020 c0 -5 5 -10 11 -10 5 0 7 5 4 10 -3 6 -8 10 -11 10 -2 0
-4 -4 -4 -10z"/>
<path d="M250 1978 c0 -4 4 -8 9 -8 6 0 12 4 15 8 3 5 -1 9 -9 9 -8 0 -15 -4
-15 -9z"/>
<path d="M2300 1985 c0 -2 6 -8 13 -14 10 -8 14 -7 14 2 0 8 -6 14 -14 14 -7
0 -13 -1 -13 -2z"/>
<path d="M115 1720 c3 -5 8 -10 11 -10 2 0 4 5 4 10 0 6 -5 10 -11 10 -5 0 -7
-4 -4 -10z"/>
<path d="M2445 1700 c-4 -6 -11 -7 -17 -4 -7 4 -8 2 -4 -5 6 -9 11 -9 22 0 14
11 18 19 10 19 -3 0 -8 -5 -11 -10z"/>
<path d="M90 1519 c0 -5 5 -7 10 -4 6 3 10 8 10 11 0 2 -4 4 -10 4 -5 0 -10
-5 -10 -11z"/>
<path d="M76 1327 c3 -10 9 -15 12 -12 3 3 0 11 -7 18 -10 9 -11 8 -5 -6z"/>
<path d="M77 1279 c7 -7 15 -10 18 -7 3 3 -2 9 -12 12 -14 6 -15 5 -6 -5z"/>
<path d="M93 1095 c0 -8 4 -12 9 -9 5 3 6 10 3 15 -9 13 -12 11 -12 -6z"/>
<path d="M2479 1018 c-5 -9 -5 -48 -1 -43 6 6 11 45 5 45 -2 0 -4 -1 -4 -2z"/>
<path d="M2450 918 c0 -11 12 -10 30 2 12 7 10 9 -8 7 -12 0 -22 -5 -22 -9z"/>
<path d="M173 815 c0 -8 4 -12 9 -9 5 3 6 10 3 15 -9 13 -12 11 -12 -6z"/>
<path d="M2387 806 c-4 -10 -1 -13 8 -9 8 3 12 9 9 14 -7 12 -11 11 -17 -5z"/>
<path d="M200 800 c1 -8 7 -24 15 -34 19 -25 19 -16 0 20 -8 16 -15 22 -15 14z"/>
<path d="M227 726 c-4 -10 -1 -13 8 -9 8 3 12 9 9 14 -7 12 -11 11 -17 -5z"/>
<path d="M253 655 c0 -8 4 -12 9 -9 5 3 6 10 3 15 -9 13 -12 11 -12 -6z"/>
<path d="M2301 644 c0 -11 3 -14 6 -6 3 7 2 16 -1 19 -3 4 -6 -2 -5 -13z"/>
<path d="M2277 575 c-4 -8 -3 -16 1 -19 4 -3 9 4 9 15 2 23 -3 25 -10 4z"/>
<path d="M326 562 c-3 -5 1 -9 9 -9 8 0 12 4 9 9 -3 4 -7 8 -9 8 -2 0 -6 -4
-9 -8z"/>
<path d="M387 486 c-4 -10 -1 -13 8 -9 8 3 12 9 9 14 -7 12 -11 11 -17 -5z"/>
<path d="M2225 439 c-3 -4 2 -6 10 -5 21 3 28 13 10 13 -9 0 -18 -4 -20 -8z"/>
<path d="M470 399 c0 -5 5 -7 10 -4 6 3 10 8 10 11 0 2 -4 4 -10 4 -5 0 -10
-5 -10 -11z"/>
<path d="M2200 390 c-6 -11 -8 -20 -6 -20 3 0 10 9 16 20 6 11 8 20 6 20 -3 0
-10 -9 -16 -20z"/>
<path d="M2165 371 c-3 -5 -2 -12 3 -15 5 -3 9 1 9 9 0 17 -3 19 -12 6z"/>
<path d="M537 329 c7 -7 15 -10 18 -7 3 3 -2 9 -12 12 -14 6 -15 5 -6 -5z"/>
<path d="M2120 315 c-7 -8 -9 -15 -4 -15 5 0 0 -7 -10 -15 -11 -8 -15 -15 -9
-15 6 0 16 7 23 15 7 8 9 15 5 15 -4 0 -2 7 5 15 7 8 10 15 7 15 -2 0 -10 -7
-17 -15z"/>
<path d="M2030 260 c0 -5 5 -10 11 -10 5 0 7 5 4 10 -3 6 -8 10 -11 10 -2 0
-4 -4 -4 -10z"/>
<path d="M651 244 c0 -11 3 -14 6 -6 3 7 2 16 -1 19 -3 4 -6 -2 -5 -13z"/>
<path d="M695 220 c-3 -5 -1 -10 4 -10 6 0 11 5 11 10 0 6 -2 10 -4 10 -3 0
-8 -4 -11 -10z"/>
<path d="M725 200 c3 -5 8 -10 11 -10 2 0 4 5 4 10 0 6 -5 10 -11 10 -5 0 -7
-4 -4 -10z"/>
<path d="M1860 200 c-9 -6 -10 -10 -3 -10 6 0 15 5 18 10 8 12 4 12 -15 0z"/>
<path d="M1775 180 c-3 -5 -1 -10 4 -10 6 0 11 5 11 10 0 6 -2 10 -4 10 -3 0
-8 -4 -11 -10z"/>
<path d="M1810 180 c0 -5 5 -10 11 -10 5 0 7 5 4 10 -3 6 -8 10 -11 10 -2 0
-4 -4 -4 -10z"/>
<path d="M1880 180 c-9 -6 -10 -10 -3 -10 6 0 15 5 18 10 8 12 4 12 -15 0z"/>
<path d="M1733 161 c0 -11 5 -18 9 -15 4 3 5 11 1 19 -7 21 -12 19 -10 -4z"/>
<path d="M810 161 c0 -6 4 -12 8 -15 5 -3 9 1 9 9 0 8 -4 15 -9 15 -4 0 -8 -4
-8 -9z"/>
<path d="M1690 160 c0 -5 5 -10 11 -10 5 0 7 5 4 10 -3 6 -8 10 -11 10 -2 0
-4 -4 -4 -10z"/>
<path d="M878 153 c7 -3 16 -2 19 1 4 3 -2 6 -13 5 -11 0 -14 -3 -6 -6z"/>
<path d="M1066 117 c3 -10 9 -15 12 -12 3 3 0 11 -7 18 -10 9 -11 8 -5 -6z"/>
<path d="M1620 126 c0 -2 7 -7 16 -10 8 -3 12 -2 9 4 -6 10 -25 14 -25 6z"/>
<path d="M1110 96 c0 -2 8 -10 18 -17 15 -13 16 -12 3 4 -13 16 -21 21 -21 13z"/>
<path d="M1158 93 c7 -3 16 -2 19 1 4 3 -2 6 -13 5 -11 0 -14 -3 -6 -6z"/>
<path d="M1341 74 c0 -11 3 -14 6 -6 3 7 2 16 -1 19 -3 4 -6 -2 -5 -13z"/>
<path d="M1312 71 c-11 -7 -11 -9 0 -14 9 -3 15 1 15 9 0 8 -1 14 -1 14 -1 0
-7 -4 -14 -9z"/>
<path d="M1430 66 c0 -2 7 -7 16 -10 8 -3 12 -2 9 4 -6 10 -25 14 -25 6z"/>
</g>
</svg>
